#N canvas 482 1276 476 994 10;
#X obj 240 112 tgl 15 1 empty empty noisy\ (inlet\ 2) 17 7 0 10 -262144
-1 -1 0 1;
#X obj 108 235 drywet~;
#X obj 108 159 drywet~;
#X obj 108 203 downsampler~;
#X obj 109 137 hsl 120 15 1 16 0 1 empty empty bits\ limit -2 -8 0
10 -262144 -1 -1 11900 1;
#X floatatom 240 137 9 0 0 0 - - -, f 9;
#X obj 516 141 bitcrush~;
#X obj 548 206 bitcrush-noisy~;
#X obj 436 14 loadbang;
#X obj 31 29 inlet~;
#X obj 78 29 inlet;
#X obj 119 29 inlet;
#X obj 160 29 inlet;
#X obj 201 29 inlet;
#X obj 242 29 inlet;
#X text 315 137 inlet 3;
#X text 315 167 inlet 4;
#X text 315 210 inlet 5;
#X text 315 243 inlet 6;
#X obj 45 362 outlet~;
#X text 89 8 2;
#X text 131 8 3;
#X text 173 9 4;
#X text 213 7 5;
#X text 255 7 6;
#X text 34 8 1;
#X obj 491 312 *~;
#X obj 530 312 *~;
#X obj 518 355 nop~;
#X obj 450 263 invert1;
#X obj 552 267 smooths~;
#X obj 476 286 smooths~;
#X connect 0 0 29 0;
#X connect 0 0 30 0;
#X connect 1 0 19 0;
#X connect 2 0 1 0;
#X connect 2 0 3 0;
#X connect 3 0 1 1;
#X connect 4 0 5 0;
#X connect 4 0 6 1;
#X connect 4 0 7 1;
#X connect 6 0 26 0;
#X connect 7 0 27 0;
#X connect 8 0 4 0;
#X connect 8 0 0 0;
#X connect 9 0 6 0;
#X connect 9 0 7 0;
#X connect 9 0 2 0;
#X connect 10 0 0 0;
#X connect 11 0 4 0;
#X connect 12 0 2 2;
#X connect 13 0 3 1;
#X connect 14 0 1 2;
#X connect 26 0 28 0;
#X connect 27 0 28 0;
#X connect 28 0 2 1;
#X connect 29 0 31 0;
#X connect 30 0 27 1;
#X connect 31 0 26 1;
#X coords 0 -1 1 1 267 176 1 100 100;
