#N canvas 1442 1796 476 474 10;
#X obj 153 154 hsl 120 15 1 16 0 1 empty empty bits\ (from\ 1\ to\ 16)
-2 -8 0 10 -262144 -1 -1 11900 1;
#X obj 152 195 inlet~;
#X obj 152 333 outlet~;
#X obj 240 254 pow;
#X msg 240 224 2;
#X obj 240 195 t b f;
#X floatatom 240 311 10 0 0 0 - - -, f 10;
#X obj 60 93 loadbang;
#X obj 152 218 *~;
#X obj 282 224 - 1;
#X obj 240 283 int;
#X text 309 311 bit max value;
#X obj 152 310 min~ 1;
#X obj 152 287 max~ -1;
#X obj 152 264 /~, f 2;
#X obj 153 76 inlet;
#X floatatom 284 154 9 0 0 0 - - -, f 9;
#X obj 152 241 round~;
#X connect 0 0 5 0;
#X connect 0 0 16 0;
#X connect 1 0 8 0;
#X connect 3 0 10 0;
#X connect 4 0 3 0;
#X connect 5 0 4 0;
#X connect 5 1 9 0;
#X connect 6 0 8 1;
#X connect 6 0 14 1;
#X connect 7 0 0 0;
#X connect 8 0 17 0;
#X connect 9 0 3 1;
#X connect 10 0 6 0;
#X connect 12 0 2 0;
#X connect 13 0 12 0;
#X connect 14 0 13 0;
#X connect 15 0 0 0;
#X connect 17 0 14 0;
#X coords 0 -1 1 1 196 50 1 148 125;
