#N canvas 2 1256 1916 1014 10;
#X obj 153 154 hsl 120 15 1 16 0 1 empty empty bits\ (1-16) -2 -8 0
10 -262144 -1 -1 11900 1;
#X obj 152 195 inlet~;
#X obj 93 449 outlet~;
#X obj 240 254 pow;
#X msg 240 224 2;
#X obj 240 195 t b f;
#X floatatom 240 311 10 0 0 0 - - -, f 10;
#X obj 59 66 loadbang;
#X obj 152 218 *~;
#X obj 282 224 - 1;
#X obj 240 283 int;
#X text 309 311 bit max value;
#X obj 152 264 /~, f 2;
#X obj 153 76 inlet;
#X floatatom 284 154 9 0 0 0 - - -, f 9;
#X obj 152 241 round~;
#X obj 324 130 tgl 15 1 empty empty empty 17 7 0 10 -262144 -1 -1 0
1;
#X text 259 128 hard-limit;
#X obj 363 81 inlet;
#X obj 93 383 min~ 1;
#X obj 93 360 max~ -1;
#X obj 93 406 *~;
#X obj 152 406 *~;
#X obj 167 360 invert1;
#X obj 167 307 smoothf;
#X obj 167 383 smoothf;
#X connect 0 0 5 0;
#X connect 0 0 14 0;
#X connect 1 0 8 0;
#X connect 3 0 10 0;
#X connect 4 0 3 0;
#X connect 5 0 4 0;
#X connect 5 1 9 0;
#X connect 6 0 8 1;
#X connect 6 0 12 1;
#X connect 7 0 0 0;
#X connect 7 0 16 0;
#X connect 8 0 15 0;
#X connect 9 0 3 1;
#X connect 10 0 6 0;
#X connect 12 0 20 0;
#X connect 12 0 22 0;
#X connect 13 0 0 0;
#X connect 15 0 12 0;
#X connect 16 0 23 0;
#X connect 16 0 24 0;
#X connect 18 0 16 0;
#X connect 19 0 21 0;
#X connect 20 0 19 0;
#X connect 21 0 2 0;
#X connect 22 0 2 0;
#X connect 23 0 25 0;
#X connect 24 0 21 1;
#X connect 25 0 22 1;
#X coords 0 -1 1 1 196 50 1 148 125;
