#N canvas 1282 1276 636 994 10;
#X obj 157 140 hsl 120 15 1 16 0 1 empty empty bits\ limit -2 -8 0
10 -262144 -1 -1 11900 1;
#X obj 104 188 inlet~;
#X obj 104 303 outlet~;
#X obj 278 252 pow;
#X msg 278 221 2;
#X obj 278 192 t b f;
#X floatatom 278 308 10 0 0 0 - - -, f 10;
#X obj 64 92 loadbang;
#X obj 104 211 *~;
#X obj 320 221 - 1;
#X obj 278 280 int;
#X text 347 308 bit max value;
#X obj 104 234 int_fract~;
#X obj 104 280 /~, f 2;
#X obj 161 280 >~ 0;
#X obj 104 257 +~;
#X obj 161 303 &&~;
#X obj 194 280 >~ 0;
#X obj 172 75 inlet;
#X floatatom 288 140 9 0 0 0 - - -, f 9;
#X connect 0 0 5 0;
#X connect 0 0 19 0;
#X connect 1 0 8 0;
#X connect 3 0 10 0;
#X connect 4 0 3 0;
#X connect 5 0 4 0;
#X connect 5 1 9 0;
#X connect 6 0 8 1;
#X connect 6 0 13 1;
#X connect 7 0 0 0;
#X connect 8 0 12 0;
#X connect 8 0 17 0;
#X connect 9 0 3 1;
#X connect 10 0 6 0;
#X connect 12 0 15 0;
#X connect 12 1 14 0;
#X connect 13 0 2 0;
#X connect 14 0 16 0;
#X connect 15 0 13 0;
#X connect 16 0 15 1;
#X connect 17 0 16 1;
#X connect 18 0 0 0;
#X coords 0 -1 1 1 198 35 2 151 126;
