#N canvas 642 1276 636 994 10;
#X obj 157 153 hsl 120 15 1 16 0 1 empty empty bits\ (from\ 1\ to\ 16)
-2 -8 0 10 -262144 -1 -1 11900 1;
#X obj 96 251 inlet~;
#X obj 243 530 outlet~;
#X obj 157 182 hsl 120 15 0 1 0 1 empty empty dry/wet -2 -8 0 10 -262144
-1 -1 11900 1;
#X obj 325 395 *~;
#X obj 97 441 *~;
#X msg 64 367 1;
#X obj 103 367 -;
#X floatatom 81 398 5 0 0 0 - - -, f 5;
#X text 351 395 wet;
#X text 70 441 dry;
#X floatatom 327 348 5 0 0 0 - - -, f 5;
#X obj 74 337 t b f;
#X obj 414 203 pow;
#X msg 414 172 2;
#X obj 414 143 t b f;
#X floatatom 414 259 10 0 0 0 - - -, f 10;
#X obj 64 92 loadbang;
#X obj 217 314 *~;
#X obj 456 172 - 1;
#X obj 414 231 int;
#X text 483 259 bit max value;
#X obj 243 507 min~ 1;
#X obj 243 484 max~ -1;
#X obj 156 344 int_fract~;
#X obj 156 410 /~, f 2;
#X obj 213 378 >~ 0;
#X obj 156 379 +~;
#X obj 224 428 &&~;
#X obj 246 378 >~ 0;
#X obj 172 75 inlet;
#X obj 225 75 inlet;
#X floatatom 288 153 9 0 0 0 - - -, f 9;
#X floatatom 288 182 9 0 0 0 - - -, f 9;
#X obj 325 234 * 100;
#X text 345 182 %;
#X connect 0 0 15 0;
#X connect 0 0 32 0;
#X connect 1 0 5 0;
#X connect 1 0 18 0;
#X connect 3 0 11 0;
#X connect 3 0 12 0;
#X connect 3 0 34 0;
#X connect 4 0 23 0;
#X connect 5 0 23 0;
#X connect 6 0 7 0;
#X connect 7 0 8 0;
#X connect 8 0 5 1;
#X connect 11 0 4 1;
#X connect 12 0 6 0;
#X connect 12 1 7 1;
#X connect 13 0 20 0;
#X connect 14 0 13 0;
#X connect 15 0 14 0;
#X connect 15 1 19 0;
#X connect 16 0 18 1;
#X connect 16 0 25 1;
#X connect 17 0 0 0;
#X connect 17 0 3 0;
#X connect 18 0 24 0;
#X connect 18 0 29 0;
#X connect 19 0 13 1;
#X connect 20 0 16 0;
#X connect 22 0 2 0;
#X connect 23 0 22 0;
#X connect 24 0 27 0;
#X connect 24 1 26 0;
#X connect 25 0 4 0;
#X connect 26 0 28 0;
#X connect 27 0 25 0;
#X connect 28 0 27 1;
#X connect 29 0 28 1;
#X connect 30 0 0 0;
#X connect 31 0 3 0;
#X connect 34 0 33 0;
#X coords 0 -1 1 1 206 78 1 151 126;
