#N canvas 482 1276 476 994 10;
#X obj 59 142 hsl 120 15 0 200 0 1 empty empty samples\ to\ freeze
-2 -8 0 10 -262144 -1 -1 0 1;
#X floatatom 189 142 6 0 0 0 - - -, f 6;
#X obj 10 73 loadbang;
#X obj 12 218 inlet~;
#X obj 84 73 inlet;
#X obj 12 408 outlet~;
#X obj 192 73 int;
#X obj 71 218 count~;
#X obj 12 325 *~;
#X obj 71 268 ==~ 0;
#X obj 294 141 + 1;
#X obj 55 325 samplefreeze~;
#X obj 124 268 >~ 0;
#X obj 72 358 *~;
#X connect 0 0 6 0;
#X connect 2 0 0 0;
#X connect 2 0 7 0;
#X connect 3 0 8 0;
#X connect 3 0 11 0;
#X connect 4 0 0 0;
#X connect 6 0 1 0;
#X connect 6 0 10 0;
#X connect 7 0 9 0;
#X connect 7 0 12 0;
#X connect 8 0 5 0;
#X connect 9 0 8 1;
#X connect 9 0 11 1;
#X connect 10 0 7 1;
#X connect 11 0 13 0;
#X connect 12 0 13 1;
#X connect 13 0 5 0;
#X coords 0 -1 1 1 176 47 1 55 114;
