#N canvas 1282 1256 636 1014 10;
#X obj 62 142 hsl 120 15 0 200 0 1 empty empty samples\ to\ freeze
-2 -8 0 10 -262144 -1 -1 0 1;
#X floatatom 192 142 6 0 0 0 - - -, f 6;
#X obj 10 73 loadbang;
#X obj 42 338 inlet~;
#X obj 84 73 inlet;
#X obj 42 528 outlet~;
#X obj 62 173 hsl 120 15 0 1 0 1 empty empty dry/wet -2 -8 0 10 -262144
-1 -1 11900 1;
#X floatatom 192 173 8 0 0 0 - - -, f 8;
#X text 243 173 %;
#X obj 192 73 int;
#X obj 89 234 * 100;
#X obj 101 338 count~;
#X obj 42 445 *~;
#X obj 101 388 ==~ 0;
#X obj 294 141 + 1;
#X obj 85 445 samplefreeze~;
#X obj 154 388 >~ 0;
#X obj 102 478 *~;
#X connect 0 0 9 0;
#X connect 2 0 0 0;
#X connect 2 0 6 0;
#X connect 2 0 11 0;
#X connect 3 0 12 0;
#X connect 3 0 15 0;
#X connect 4 0 0 0;
#X connect 6 0 10 0;
#X connect 9 0 1 0;
#X connect 9 0 14 0;
#X connect 10 0 7 0;
#X connect 11 0 13 0;
#X connect 11 0 16 0;
#X connect 12 0 5 0;
#X connect 13 0 12 1;
#X connect 13 0 15 1;
#X connect 14 0 11 1;
#X connect 15 0 17 0;
#X connect 16 0 17 1;
#X connect 17 0 5 0;
#X coords 0 -1 1 1 200 81 1 55 114;
