#N canvas 962 1276 476 994 10;
#X obj 50 381 inlet~;
#X obj 83 287 hsl 120 15 0.01 1 0 1 empty empty dry/wet -2 -8 0 10
-262144 -1 -1 11900 1;
#X floatatom 214 287 9 0 0 0 - - -, f 9;
#X text 271 287 %;
#X obj 23 206 loadbang;
#X obj 192 334 * 100;
#X obj 217 356 inlet~;
#X obj 352 192 inlet;
#X obj 217 524 outlet~;
#X obj 150 501 *~;
#X msg 117 427 1;
#X obj 156 427 -;
#X floatatom 127 465 5 0 0 0 - - -, f 5;
#X text 125 501 dry;
#X obj 127 386 t b f;
#X obj 217 397 *~;
#X text 242 397 wet;
#X obj 127 354 line;
#X obj 105 330 pack f 50;
#X connect 0 0 9 0;
#X connect 1 0 5 0;
#X connect 1 0 18 0;
#X connect 4 0 1 0;
#X connect 5 0 2 0;
#X connect 6 0 15 0;
#X connect 7 0 1 0;
#X connect 9 0 8 0;
#X connect 10 0 11 0;
#X connect 11 0 12 0;
#X connect 12 0 9 1;
#X connect 14 0 10 0;
#X connect 14 1 11 1;
#X connect 15 0 8 0;
#X connect 17 0 14 0;
#X connect 17 0 15 1;
#X connect 18 0 17 0;
#X coords 0 -1 1 1 201 33 2 80 273;
