#N canvas 642 1276 636 994 10;
#X obj 104 393 inlet~;
#X obj 83 287 hsl 120 15 0.01 1 0 1 empty empty dry/wet -2 -8 0 10
-262144 -1 -1 11900 1;
#X floatatom 214 287 9 0 0 0 - - -, f 9;
#X text 271 287 %;
#X obj 83 232 loadbang;
#X obj 192 330 * 100;
#X obj 217 356 inlet~;
#X obj 294 232 inlet;
#X obj 217 494 outlet~;
#X obj 129 440 *~;
#X text 104 440 dry;
#X obj 217 397 *~;
#X text 242 397 wet;
#X obj 104 345 invert1;
#X obj 104 369 smooths~;
#X connect 0 0 9 0;
#X connect 1 0 5 0;
#X connect 1 0 11 1;
#X connect 1 0 13 0;
#X connect 4 0 1 0;
#X connect 5 0 2 0;
#X connect 6 0 11 0;
#X connect 7 0 1 0;
#X connect 9 0 8 0;
#X connect 11 0 8 0;
#X connect 13 0 14 0;
#X connect 14 0 9 1;
#X coords 0 -1 1 1 201 33 2 80 273;
