#N canvas 962 1276 956 994 10;
#X obj 148 66 bitcrusher~;
#X obj 63 342 volume~;
#X obj 187 330 loadbang;
#X msg 187 356 1;
#X obj 203 402 volume~;
#X obj 306 403 volume~;
#X obj 59 633 dac~ 1 2;
#X obj 50 33 adc~ 1 2;
#X obj 263 631 dac~ 3;
#X obj 403 297 adc~ 3 4;
#X text 463 296 guitarix main out;
#X text 263 654 guitarix main in;
#X text 110 33 raw guitar in (hardware);
#X text 56 657 main out (hardware);
#X obj 439 399 vsl 15 128 0 1 0 1 empty empty empty 0 -9 0 10 -262144
-1 -1 12700 1;
#X obj 71 262 swapper~;
#X obj 166 255 tgl 15 0 empty empty empty 17 7 0 10 -262144 -1 -1 0
1;
#X obj 506 356 adc~ 5;
#X obj 506 391 volume~;
#X obj 491 633 dac~ 5;
#X text 555 356 guitarix insert out;
#X text 490 657 guitarix insert in;
#X connect 0 0 15 1;
#X connect 1 0 8 0;
#X connect 2 0 3 0;
#X connect 3 0 1 1;
#X connect 3 0 4 1;
#X connect 3 0 5 1;
#X connect 3 0 14 0;
#X connect 3 0 18 1;
#X connect 4 0 6 0;
#X connect 5 0 6 1;
#X connect 7 1 0 0;
#X connect 7 1 15 0;
#X connect 9 0 4 0;
#X connect 9 1 5 0;
#X connect 14 0 4 1;
#X connect 14 0 5 1;
#X connect 15 0 1 0;
#X connect 16 0 15 2;
#X connect 17 0 18 0;
#X connect 18 0 19 0;
