#N canvas 1154 1796 380 474 10;
#X obj 7 12 inlet;
#X text 67 33 50 msecs ramp for changing a signal value;
#X obj 7 54 line~;
#X obj 7 75 outlet~;
#X msg 7 33 \$1 50;
#X connect 0 0 4 0;
#X connect 2 0 3 0;
#X connect 4 0 2 0;
