#N canvas 962 1276 956 994 10;
#X obj 110 110 tgl 46 1 empty empty ON 17 7 0 10 -113301 -1 -1 0 1
;
#X obj 169 185 smooths~;
#X obj 100 220 *~;
#X obj 40 34 inlet~;
#X obj 158 47 inlet;
#X obj 67 278 outlet~;
#X connect 0 0 1 0;
#X connect 1 0 2 1;
#X connect 2 0 5 0;
#X connect 3 0 2 0;
#X connect 4 0 0 0;
#X coords 0 -1 1 1 66 66 2 100 100;
